# Blender 4.5.0
# www.blender.org
o Plane
v -100.000000 0.000000 -100.000000
v -100.000000 0.000000 100.000000
v 100.000000 0.000000 -100.000000
v 100.000000 0.000000 100.000000
v 77.777779 0.000000 -100.000000
v 55.555553 0.000000 -100.000000
v 33.333328 0.000000 -100.000000
v 11.111107 0.000000 -100.000000
v -11.111115 0.000000 -100.000000
v -33.333336 0.000000 -100.000000
v -55.555557 0.000000 -100.000000
v -77.777779 0.000000 -100.000000
v -100.000000 0.000000 -77.777779
v -100.000000 0.000000 -55.555553
v -100.000000 0.000000 -33.333328
v -100.000000 0.000000 -11.111107
v -100.000000 0.000000 11.111115
v -100.000000 0.000000 33.333336
v -100.000000 0.000000 55.555557
v -100.000000 0.000000 77.777779
v -77.777779 0.000000 100.000000
v -55.555553 0.000000 100.000000
v -33.333328 0.000000 100.000000
v -11.111107 0.000000 100.000000
v 11.111115 0.000000 100.000000
v 33.333336 0.000000 100.000000
v 55.555557 0.000000 100.000000
v 77.777779 0.000000 100.000000
v 100.000000 0.000000 77.777779
v 100.000000 0.000000 55.555553
v 100.000000 0.000000 33.333328
v 100.000000 0.000000 11.111107
v 100.000000 0.000000 -11.111115
v 100.000000 0.000000 -33.333336
v 100.000000 0.000000 -55.555557
v 100.000000 0.000000 -77.777779
v -77.777779 0.000000 -77.777779
v -55.555553 0.000000 -77.777779
v -33.333328 0.000000 -77.777779
v -11.111107 0.000000 -77.777779
v 11.111115 0.000000 -77.777779
v 33.333336 0.000000 -77.777779
v 55.555557 0.000000 -77.777779
v 77.777779 0.000000 -77.777779
v -77.777779 0.000000 -55.555553
v -55.555553 0.000000 -55.555553
v -33.333328 0.000000 -55.555553
v -11.111107 0.000000 -55.555553
v 11.111115 0.000000 -55.555553
v 33.333336 0.000000 -55.555553
v 55.555557 0.000000 -55.555553
v 77.777779 0.000000 -55.555553
v -77.777779 0.000000 -33.333328
v -55.555553 0.000000 -33.333328
v -33.333328 0.000000 -33.333328
v -11.111107 0.000000 -33.333328
v 11.111115 0.000000 -33.333328
v 33.333336 0.000000 -33.333328
v 55.555557 0.000000 -33.333332
v 77.777779 0.000000 -33.333336
v -77.777779 0.000000 -11.111108
v -55.555553 0.000000 -11.111109
v -33.333328 0.000000 -11.111111
v -11.111107 0.000000 -11.111112
v 11.111115 0.000000 -11.111112
v 33.333336 0.000000 -11.111112
v 55.555557 0.000000 -11.111113
v 77.777779 0.000000 -11.111115
v -77.777779 0.000000 11.111113
v -55.555553 0.000000 11.111112
v -33.333328 0.000000 11.111111
v -11.111107 0.000000 11.111109
v 11.111115 0.000000 11.111109
v 33.333336 0.000000 11.111109
v 55.555557 0.000000 11.111108
v 77.777779 0.000000 11.111107
v -77.777779 0.000000 33.333336
v -55.555553 0.000000 33.333336
v -33.333328 0.000000 33.333336
v -11.111107 0.000000 33.333336
v 11.111115 0.000000 33.333336
v 33.333336 0.000000 33.333336
v 55.555557 0.000000 33.333332
v 77.777779 0.000000 33.333328
v -77.777779 0.000000 55.555557
v -55.555553 0.000000 55.555557
v -33.333328 0.000000 55.555557
v -11.111107 0.000000 55.555557
v 11.111115 0.000000 55.555557
v 33.333336 0.000000 55.555557
v 55.555557 0.000000 55.555557
v 77.777779 0.000000 55.555553
v -77.777779 0.000000 77.777779
v -55.555553 0.000000 77.777779
v -33.333328 0.000000 77.777779
v -11.111107 0.000000 77.777779
v 11.111115 0.000000 77.777779
v 33.333336 0.000000 77.777779
v 55.555557 0.000000 77.777779
v 77.777779 0.000000 77.777779
vn -0.0000 1.0000 -0.0000
vt 0.888889 0.888889
vt 1.000000 1.000000
vt 0.888889 1.000000
vt 0.000000 0.888889
vt 0.111111 1.000000
vt 0.000000 1.000000
vt 0.111111 0.888889
vt 0.222222 1.000000
vt 0.222222 0.888889
vt 0.333333 1.000000
vt 0.333333 0.888889
vt 0.444444 1.000000
vt 0.444444 0.888889
vt 0.555556 1.000000
vt 0.555556 0.888889
vt 0.666667 1.000000
vt 0.666667 0.888889
vt 0.777778 1.000000
vt 0.777778 0.888889
vt 0.000000 0.000000
vt 0.111111 0.111111
vt 0.000000 0.111111
vt 0.111111 0.222222
vt 0.000000 0.222222
vt 0.111111 0.333333
vt 0.000000 0.333333
vt 0.111111 0.444444
vt 0.000000 0.444444
vt 0.111111 0.555556
vt 0.000000 0.555556
vt 0.111111 0.666667
vt 0.000000 0.666667
vt 0.111111 0.777778
vt 0.000000 0.777778
vt 0.111111 0.000000
vt 0.222222 0.111111
vt 0.222222 0.222222
vt 0.222222 0.333333
vt 0.222222 0.444444
vt 0.222222 0.555556
vt 0.222222 0.666667
vt 0.222222 0.777778
vt 0.222222 0.000000
vt 0.333333 0.111111
vt 0.333333 0.222222
vt 0.333333 0.333333
vt 0.333333 0.444444
vt 0.333333 0.555556
vt 0.333333 0.666667
vt 0.333333 0.777778
vt 0.333333 0.000000
vt 0.444444 0.111111
vt 0.444444 0.222222
vt 0.444444 0.333333
vt 0.444444 0.444444
vt 0.444444 0.555556
vt 0.444444 0.666667
vt 0.444444 0.777778
vt 0.444444 0.000000
vt 0.555556 0.111111
vt 0.555556 0.222222
vt 0.555556 0.333333
vt 0.555556 0.444444
vt 0.555556 0.555556
vt 0.555556 0.666667
vt 0.555556 0.777778
vt 0.555556 0.000000
vt 0.666667 0.111111
vt 0.666667 0.222222
vt 0.666667 0.333333
vt 0.666667 0.444444
vt 0.666667 0.555556
vt 0.666667 0.666667
vt 0.666667 0.777778
vt 0.666667 0.000000
vt 0.777778 0.111111
vt 0.777778 0.222222
vt 0.777778 0.333333
vt 0.777778 0.444444
vt 0.777778 0.555556
vt 0.777778 0.666667
vt 0.777778 0.777778
vt 0.777778 0.000000
vt 0.888889 0.111111
vt 0.888889 0.222222
vt 0.888889 0.333333
vt 0.888889 0.444444
vt 0.888889 0.555556
vt 0.888889 0.666667
vt 0.888889 0.777778
vt 0.888889 0.000000
vt 1.000000 0.111111
vt 1.000000 0.222222
vt 1.000000 0.333333
vt 1.000000 0.444444
vt 1.000000 0.555556
vt 1.000000 0.666667
vt 1.000000 0.777778
vt 1.000000 0.888889
vt 1.000000 0.000000
s 0
f 100/1/1 4/2/1 29/3/1
f 5/4/1 36/5/1 3/6/1
f 44/7/1 35/8/1 36/5/1
f 52/9/1 34/10/1 35/8/1
f 60/11/1 33/12/1 34/10/1
f 68/13/1 32/14/1 33/12/1
f 76/15/1 31/16/1 32/14/1
f 84/17/1 30/18/1 31/16/1
f 92/19/1 29/3/1 30/18/1
f 1/20/1 37/21/1 12/22/1
f 12/22/1 38/23/1 11/24/1
f 11/24/1 39/25/1 10/26/1
f 10/26/1 40/27/1 9/28/1
f 9/28/1 41/29/1 8/30/1
f 8/30/1 42/31/1 7/32/1
f 7/32/1 43/33/1 6/34/1
f 6/34/1 44/7/1 5/4/1
f 13/35/1 45/36/1 37/21/1
f 37/21/1 46/37/1 38/23/1
f 38/23/1 47/38/1 39/25/1
f 39/25/1 48/39/1 40/27/1
f 40/27/1 49/40/1 41/29/1
f 41/29/1 50/41/1 42/31/1
f 42/31/1 51/42/1 43/33/1
f 43/33/1 52/9/1 44/7/1
f 14/43/1 53/44/1 45/36/1
f 45/36/1 54/45/1 46/37/1
f 46/37/1 55/46/1 47/38/1
f 47/38/1 56/47/1 48/39/1
f 48/39/1 57/48/1 49/40/1
f 49/40/1 58/49/1 50/41/1
f 50/41/1 59/50/1 51/42/1
f 51/42/1 60/11/1 52/9/1
f 15/51/1 61/52/1 53/44/1
f 53/44/1 62/53/1 54/45/1
f 54/45/1 63/54/1 55/46/1
f 55/46/1 64/55/1 56/47/1
f 56/47/1 65/56/1 57/48/1
f 57/48/1 66/57/1 58/49/1
f 58/49/1 67/58/1 59/50/1
f 59/50/1 68/13/1 60/11/1
f 16/59/1 69/60/1 61/52/1
f 61/52/1 70/61/1 62/53/1
f 62/53/1 71/62/1 63/54/1
f 63/54/1 72/63/1 64/55/1
f 64/55/1 73/64/1 65/56/1
f 65/56/1 74/65/1 66/57/1
f 66/57/1 75/66/1 67/58/1
f 67/58/1 76/15/1 68/13/1
f 17/67/1 77/68/1 69/60/1
f 69/60/1 78/69/1 70/61/1
f 70/61/1 79/70/1 71/62/1
f 71/62/1 80/71/1 72/63/1
f 72/63/1 81/72/1 73/64/1
f 73/64/1 82/73/1 74/65/1
f 74/65/1 83/74/1 75/66/1
f 75/66/1 84/17/1 76/15/1
f 18/75/1 85/76/1 77/68/1
f 77/68/1 86/77/1 78/69/1
f 78/69/1 87/78/1 79/70/1
f 79/70/1 88/79/1 80/71/1
f 80/71/1 89/80/1 81/72/1
f 81/72/1 90/81/1 82/73/1
f 82/73/1 91/82/1 83/74/1
f 83/74/1 92/19/1 84/17/1
f 19/83/1 93/84/1 85/76/1
f 85/76/1 94/85/1 86/77/1
f 86/77/1 95/86/1 87/78/1
f 87/78/1 96/87/1 88/79/1
f 88/79/1 97/88/1 89/80/1
f 89/80/1 98/89/1 90/81/1
f 90/81/1 99/90/1 91/82/1
f 91/82/1 100/1/1 92/19/1
f 20/91/1 21/92/1 93/84/1
f 93/84/1 22/93/1 94/85/1
f 94/85/1 23/94/1 95/86/1
f 95/86/1 24/95/1 96/87/1
f 96/87/1 25/96/1 97/88/1
f 97/88/1 26/97/1 98/89/1
f 98/89/1 27/98/1 99/90/1
f 99/90/1 28/99/1 100/1/1
f 100/1/1 28/99/1 4/2/1
f 5/4/1 44/7/1 36/5/1
f 44/7/1 52/9/1 35/8/1
f 52/9/1 60/11/1 34/10/1
f 60/11/1 68/13/1 33/12/1
f 68/13/1 76/15/1 32/14/1
f 76/15/1 84/17/1 31/16/1
f 84/17/1 92/19/1 30/18/1
f 92/19/1 100/1/1 29/3/1
f 1/20/1 13/35/1 37/21/1
f 12/22/1 37/21/1 38/23/1
f 11/24/1 38/23/1 39/25/1
f 10/26/1 39/25/1 40/27/1
f 9/28/1 40/27/1 41/29/1
f 8/30/1 41/29/1 42/31/1
f 7/32/1 42/31/1 43/33/1
f 6/34/1 43/33/1 44/7/1
f 13/35/1 14/43/1 45/36/1
f 37/21/1 45/36/1 46/37/1
f 38/23/1 46/37/1 47/38/1
f 39/25/1 47/38/1 48/39/1
f 40/27/1 48/39/1 49/40/1
f 41/29/1 49/40/1 50/41/1
f 42/31/1 50/41/1 51/42/1
f 43/33/1 51/42/1 52/9/1
f 14/43/1 15/51/1 53/44/1
f 45/36/1 53/44/1 54/45/1
f 46/37/1 54/45/1 55/46/1
f 47/38/1 55/46/1 56/47/1
f 48/39/1 56/47/1 57/48/1
f 49/40/1 57/48/1 58/49/1
f 50/41/1 58/49/1 59/50/1
f 51/42/1 59/50/1 60/11/1
f 15/51/1 16/59/1 61/52/1
f 53/44/1 61/52/1 62/53/1
f 54/45/1 62/53/1 63/54/1
f 55/46/1 63/54/1 64/55/1
f 56/47/1 64/55/1 65/56/1
f 57/48/1 65/56/1 66/57/1
f 58/49/1 66/57/1 67/58/1
f 59/50/1 67/58/1 68/13/1
f 16/59/1 17/67/1 69/60/1
f 61/52/1 69/60/1 70/61/1
f 62/53/1 70/61/1 71/62/1
f 63/54/1 71/62/1 72/63/1
f 64/55/1 72/63/1 73/64/1
f 65/56/1 73/64/1 74/65/1
f 66/57/1 74/65/1 75/66/1
f 67/58/1 75/66/1 76/15/1
f 17/67/1 18/75/1 77/68/1
f 69/60/1 77/68/1 78/69/1
f 70/61/1 78/69/1 79/70/1
f 71/62/1 79/70/1 80/71/1
f 72/63/1 80/71/1 81/72/1
f 73/64/1 81/72/1 82/73/1
f 74/65/1 82/73/1 83/74/1
f 75/66/1 83/74/1 84/17/1
f 18/75/1 19/83/1 85/76/1
f 77/68/1 85/76/1 86/77/1
f 78/69/1 86/77/1 87/78/1
f 79/70/1 87/78/1 88/79/1
f 80/71/1 88/79/1 89/80/1
f 81/72/1 89/80/1 90/81/1
f 82/73/1 90/81/1 91/82/1
f 83/74/1 91/82/1 92/19/1
f 19/83/1 20/91/1 93/84/1
f 85/76/1 93/84/1 94/85/1
f 86/77/1 94/85/1 95/86/1
f 87/78/1 95/86/1 96/87/1
f 88/79/1 96/87/1 97/88/1
f 89/80/1 97/88/1 98/89/1
f 90/81/1 98/89/1 99/90/1
f 91/82/1 99/90/1 100/1/1
f 20/91/1 2/100/1 21/92/1
f 93/84/1 21/92/1 22/93/1
f 94/85/1 22/93/1 23/94/1
f 95/86/1 23/94/1 24/95/1
f 96/87/1 24/95/1 25/96/1
f 97/88/1 25/96/1 26/97/1
f 98/89/1 26/97/1 27/98/1
f 99/90/1 27/98/1 28/99/1
