# Blender 4.5.0
# www.blender.org
mtllib raven_legs.mtl
o Cube.001
v 0.070888 -0.034488 -0.393608
v 0.048871 -0.643334 -0.393608
v 0.082902 -0.034922 -0.438473
v 0.060885 -0.643768 -0.438473
v 0.070888 -0.034488 -0.483338
v 0.048871 -0.643334 -0.483338
v 0.038066 -0.033301 -0.516182
v 0.016049 -0.642147 -0.516182
v -0.006770 -0.031679 -0.528204
v -0.028787 -0.640526 -0.528204
v 0.016049 -0.642147 -0.360764
v 0.038066 -0.033301 -0.360764
v -0.028787 -0.640526 -0.348743
v -0.006770 -0.031679 -0.348743
v -0.073623 -0.638905 -0.360764
v -0.051606 -0.030058 -0.360764
v -0.106445 -0.637718 -0.393608
v -0.084429 -0.028871 -0.393608
v -0.118459 -0.637283 -0.438473
v -0.096442 -0.028437 -0.438473
v -0.106445 -0.637718 -0.483338
v -0.084429 -0.028871 -0.483338
v -0.073623 -0.638905 -0.516182
v -0.051606 -0.030058 -0.516182
v 0.056233 -0.772424 -0.438473
v 0.044219 -0.771990 -0.393608
v 0.044219 -0.771990 -0.483338
v 0.011397 -0.770803 -0.516182
v -0.033439 -0.769182 -0.528204
v 0.011397 -0.770803 -0.360764
v -0.033439 -0.769182 -0.348743
v -0.078275 -0.767560 -0.360764
v -0.111097 -0.766373 -0.393608
v -0.123111 -0.765939 -0.438473
v -0.111097 -0.766373 -0.483338
v -0.078275 -0.767560 -0.516182
v 0.234324 -0.824412 -0.438473
v 0.222310 -0.823978 -0.393608
v 0.222310 -0.823978 -0.483338
v -0.150249 -0.810506 -0.708057
v -0.105413 -0.812127 -0.696036
v -0.105413 -0.812127 -0.180910
v -0.150249 -0.810506 -0.168889
v -0.195085 -0.808885 -0.180910
v -0.292479 -0.805363 -0.393608
v -0.304493 -0.804928 -0.438473
v -0.292479 -0.805363 -0.483338
v -0.195085 -0.808885 -0.696036
v 0.231610 -0.899485 -0.438473
v 0.219596 -0.899050 -0.393608
v 0.219596 -0.899050 -0.483338
v -0.152964 -0.885578 -0.708057
v -0.108128 -0.887199 -0.696036
v -0.108128 -0.887199 -0.180910
v -0.152964 -0.885578 -0.168889
v -0.197800 -0.883957 -0.180910
v -0.295193 -0.880435 -0.393608
v -0.307207 -0.880000 -0.438473
v -0.295193 -0.880435 -0.483338
v -0.197800 -0.883957 -0.696036
v 0.070888 -0.034488 0.393608
v 0.048871 -0.643334 0.393608
v 0.082902 -0.034922 0.438473
v 0.060885 -0.643768 0.438473
v 0.070888 -0.034488 0.483338
v 0.048871 -0.643334 0.483338
v 0.038066 -0.033301 0.516182
v 0.016049 -0.642147 0.516182
v -0.006770 -0.031679 0.528204
v -0.028787 -0.640526 0.528204
v 0.016049 -0.642147 0.360764
v 0.038066 -0.033301 0.360764
v -0.028787 -0.640526 0.348743
v -0.006770 -0.031679 0.348743
v -0.073623 -0.638905 0.360764
v -0.051606 -0.030058 0.360764
v -0.106445 -0.637718 0.393608
v -0.084429 -0.028871 0.393608
v -0.118459 -0.637283 0.438473
v -0.096442 -0.028437 0.438473
v -0.106445 -0.637718 0.483338
v -0.084429 -0.028871 0.483338
v -0.073623 -0.638905 0.516182
v -0.051606 -0.030058 0.516182
v 0.056233 -0.772424 0.438473
v 0.044219 -0.771990 0.393608
v 0.044219 -0.771990 0.483338
v 0.011397 -0.770803 0.516182
v -0.033439 -0.769182 0.528204
v 0.011397 -0.770803 0.360764
v -0.033439 -0.769182 0.348743
v -0.078275 -0.767560 0.360764
v -0.111097 -0.766373 0.393608
v -0.123111 -0.765939 0.438473
v -0.111097 -0.766373 0.483338
v -0.078275 -0.767560 0.516182
v 0.234324 -0.824412 0.438473
v 0.222310 -0.823978 0.393608
v 0.222310 -0.823978 0.483338
v -0.150249 -0.810506 0.708057
v -0.105413 -0.812127 0.696036
v -0.105413 -0.812127 0.180910
v -0.150249 -0.810506 0.168889
v -0.195085 -0.808885 0.180910
v -0.292479 -0.805363 0.393608
v -0.304493 -0.804928 0.438473
v -0.292479 -0.805363 0.483338
v -0.195085 -0.808885 0.696036
v 0.231610 -0.899485 0.438473
v 0.219596 -0.899050 0.393608
v 0.219596 -0.899050 0.483338
v -0.152964 -0.885578 0.708057
v -0.108128 -0.887199 0.696036
v -0.108128 -0.887199 0.180910
v -0.152964 -0.885578 0.168889
v -0.197800 -0.883957 0.180910
v -0.295193 -0.880435 0.393608
v -0.307207 -0.880000 0.438473
v -0.295193 -0.880435 0.483338
v -0.197800 -0.883957 0.696036
vn 0.9653 -0.0349 -0.2588
vn 0.2586 -0.0094 -0.9659
vn 0.7066 -0.0256 -0.7071
vn 0.9653 -0.0349 0.2588
vn 0.7066 -0.0256 0.7071
vn 0.2586 -0.0094 0.9659
vn -0.2586 0.0094 0.9659
vn -0.7066 0.0256 0.7071
vn -0.9653 0.0349 0.2588
vn -0.9653 0.0349 -0.2588
vn 0.0361 0.9993 -0.0000
vn -0.7066 0.0256 -0.7071
vn -0.2586 0.0094 -0.9659
vn -0.1939 -0.7598 -0.6206
vn -0.0361 -0.9993 -0.0000
vn -0.0000 -0.0000 1.0000
vn -0.6581 0.7303 0.1833
vn 0.1008 -0.8645 0.4925
vn 0.8414 -0.0304 -0.5395
vn -0.1939 -0.7598 0.6206
vn 0.7091 0.6808 -0.1833
vn 0.2224 0.6291 0.7448
vn -0.8414 0.0304 -0.5395
vn -0.1408 0.7652 0.6282
vn -0.1408 0.7652 -0.6282
vn -0.8414 0.0304 0.5395
vn 0.1008 -0.8645 -0.4925
vn -0.0000 -0.0000 -1.0000
vn -0.6581 0.7303 -0.1833
vn -0.5803 -0.8009 -0.1476
vn 0.5209 -0.8408 -0.1476
vn 0.8414 -0.0304 0.5395
vn 0.7091 0.6808 0.1833
vn -0.5803 -0.8009 0.1476
vn 0.5209 -0.8407 0.1476
vn 0.2224 0.6291 -0.7448
vn 0.5209 -0.8407 -0.1476
vn 0.5209 -0.8408 0.1476
vt 1.000000 1.000000
vt 0.916667 0.500000
vt 1.000000 0.500000
vt 0.916667 1.000000
vt 0.833333 0.500000
vt 0.833333 1.000000
vt 0.750000 0.500000
vt 0.750000 1.000000
vt 0.666667 0.500000
vt 0.666667 1.000000
vt 0.583333 0.500000
vt 0.583333 1.000000
vt 0.500000 0.500000
vt 0.500000 1.000000
vt 0.416667 0.500000
vt 0.416667 1.000000
vt 0.333333 0.500000
vt 0.333333 1.000000
vt 0.250000 0.500000
vt 0.250000 1.000000
vt 0.166667 0.500000
vt 0.250000 0.010000
vt 0.457846 0.130000
vt 0.250000 0.490000
vt 0.166667 1.000000
vt 0.083333 0.500000
vt 0.083333 1.000000
vt 0.000000 0.500000
vt 0.750000 0.010000
vt 0.870000 0.042154
vt 0.542154 0.130000
vt 0.750000 0.490000
vt 0.630000 0.457846
vt 0.870000 0.457846
vt 0.630000 0.042154
vt 0.990000 0.250000
vt 0.957846 0.130000
vt 0.510000 0.250000
vt 0.957846 0.370000
vt 0.542154 0.370000
vt 0.490000 0.250000
vt 0.457846 0.370000
vt 0.370000 0.457846
vt 0.130000 0.457846
vt 0.042154 0.130000
vt 0.042154 0.370000
vt 0.010000 0.250000
vt 0.130000 0.042154
vt 0.370000 0.042154
vt 0.000000 1.000000
s 0
f 5/1/1 4/2/1 6/3/1
f 9/4/2 8/5/2 10/2/2
f 7/6/3 6/7/3 8/5/3
f 3/8/4 2/9/4 4/7/4
f 1/10/5 11/11/5 2/9/5
f 12/12/6 13/13/6 11/11/6
f 14/14/7 15/15/7 13/13/7
f 16/16/8 17/17/8 15/15/8
f 18/18/9 19/19/9 17/17/9
f 20/20/10 21/21/10 19/19/10
f 14/22/11 1/23/11 9/24/11
f 22/25/12 23/26/12 21/21/12
f 24/27/13 10/28/13 23/26/13
f 31/29/14 54/30/14 55/29/14
f 31/29/15 33/31/15 29/32/15
f 33/17/16 45/17/16 57/17/16
f 23/26/12 35/21/12 21/21/12
f 19/19/17 45/17/17 17/17/17
f 36/33/18 52/32/18 29/32/18
f 28/5/19 41/5/19 8/5/19
f 17/17/8 32/15/8 15/15/8
f 6/7/3 28/5/3 8/5/3
f 29/32/20 53/34/20 28/34/20
f 4/2/21 39/3/21 6/3/21
f 13/13/22 42/11/22 11/11/22
f 11/11/5 26/9/5 2/9/5
f 40/28/13 60/26/13 48/26/13
f 38/9/4 49/7/4 37/7/4
f 47/21/10 58/19/10 46/19/10
f 41/5/2 52/2/2 40/2/2
f 46/19/9 57/17/9 45/17/9
f 37/2/1 51/3/1 39/3/1
f 44/15/7 55/13/7 43/13/7
f 43/13/6 54/11/6 42/11/6
f 32/15/23 44/15/23 15/15/23
f 15/15/24 43/13/24 13/13/24
f 23/26/25 40/28/25 48/26/25
f 36/26/26 48/26/26 60/26/26
f 32/35/27 55/29/27 56/35/27
f 27/7/28 39/7/28 51/7/28
f 26/9/16 38/9/16 2/9/16
f 19/19/29 47/21/29 46/19/29
f 25/36/30 50/37/30 26/37/30
f 34/38/31 57/31/31 58/38/31
f 30/11/32 42/11/32 54/11/32
f 4/7/33 38/9/33 37/7/33
f 25/36/34 51/39/34 49/36/34
f 35/21/28 47/21/28 21/21/28
f 34/38/35 59/40/35 35/40/35
f 10/2/36 41/5/36 40/2/36
f 5/1/1 3/4/1 4/2/1
f 9/4/2 7/6/2 8/5/2
f 7/6/3 5/8/3 6/7/3
f 3/8/4 1/10/4 2/9/4
f 1/10/5 12/12/5 11/11/5
f 12/12/6 14/14/6 13/13/6
f 14/14/7 16/16/7 15/15/7
f 16/16/8 18/18/8 17/17/8
f 18/18/9 20/20/9 19/19/9
f 20/20/10 22/25/10 21/21/10
f 1/23/11 3/41/11 9/24/11
f 3/41/11 5/42/11 9/24/11
f 5/42/11 7/43/11 9/24/11
f 9/24/11 24/44/11 18/45/11
f 24/44/11 22/46/11 18/45/11
f 22/46/11 20/47/11 18/45/11
f 18/45/11 16/48/11 14/22/11
f 14/22/11 12/49/11 1/23/11
f 18/45/11 14/22/11 9/24/11
f 22/25/12 24/27/12 23/26/12
f 24/27/13 9/50/13 10/28/13
f 31/29/14 30/30/14 54/30/14
f 29/32/15 28/34/15 27/39/15
f 27/39/15 25/36/15 29/32/15
f 25/36/15 26/37/15 29/32/15
f 26/37/15 30/30/15 31/29/15
f 31/29/15 32/35/15 33/31/15
f 33/31/15 34/38/15 35/40/15
f 35/40/15 36/33/15 33/31/15
f 36/33/15 29/32/15 33/31/15
f 26/37/15 31/29/15 29/32/15
f 33/17/16 17/17/16 45/17/16
f 23/26/12 36/26/12 35/21/12
f 19/19/17 46/19/17 45/17/17
f 36/33/18 60/33/18 52/32/18
f 28/5/19 53/5/19 41/5/19
f 17/17/8 33/17/8 32/15/8
f 6/7/3 27/7/3 28/5/3
f 29/32/20 52/32/20 53/34/20
f 4/2/21 37/2/21 39/3/21
f 13/13/22 43/13/22 42/11/22
f 11/11/5 30/11/5 26/9/5
f 40/28/13 52/28/13 60/26/13
f 38/9/4 50/9/4 49/7/4
f 47/21/10 59/21/10 58/19/10
f 41/5/2 53/5/2 52/2/2
f 46/19/9 58/19/9 57/17/9
f 37/2/1 49/2/1 51/3/1
f 44/15/7 56/15/7 55/13/7
f 43/13/6 55/13/6 54/11/6
f 32/15/23 56/15/23 44/15/23
f 15/15/24 44/15/24 43/13/24
f 23/26/25 10/28/25 40/28/25
f 36/26/26 23/26/26 48/26/26
f 32/35/27 31/29/27 55/29/27
f 27/7/28 6/7/28 39/7/28
f 26/9/16 50/9/16 38/9/16
f 19/19/29 21/21/29 47/21/29
f 25/36/30 49/36/30 50/37/30
f 34/38/37 33/31/37 57/31/37
f 30/11/32 11/11/32 42/11/32
f 4/7/33 2/9/33 38/9/33
f 25/36/34 27/39/34 51/39/34
f 35/21/28 59/21/28 47/21/28
f 34/38/38 58/38/38 59/40/38
f 10/2/36 8/5/36 41/5/36
f 65/1/4 66/3/4 64/2/4
f 69/4/6 70/2/6 68/5/6
f 67/6/5 68/5/5 66/7/5
f 63/8/1 64/7/1 62/9/1
f 61/10/3 62/9/3 71/11/3
f 72/12/2 71/11/2 73/13/2
f 74/14/13 73/13/13 75/15/13
f 76/16/12 75/15/12 77/17/12
f 78/18/10 77/17/10 79/19/10
f 80/20/9 79/19/9 81/21/9
f 74/22/11 69/24/11 61/23/11
f 82/25/8 81/21/8 83/26/8
f 84/27/7 83/26/7 70/28/7
f 91/29/20 115/29/20 114/30/20
f 91/29/15 89/32/15 93/31/15
f 93/17/28 117/17/28 105/17/28
f 83/26/8 81/21/8 95/21/8
f 79/19/29 77/17/29 105/17/29
f 96/33/27 89/32/27 112/32/27
f 88/5/32 68/5/32 101/5/32
f 77/17/12 75/15/12 92/15/12
f 66/7/5 68/5/5 88/5/5
f 89/32/14 88/34/14 113/34/14
f 64/2/33 66/3/33 99/3/33
f 73/13/36 71/11/36 102/11/36
f 71/11/3 62/9/3 86/9/3
f 100/28/7 108/26/7 120/26/7
f 98/9/1 97/7/1 109/7/1
f 107/21/9 106/19/9 118/19/9
f 101/5/6 100/2/6 112/2/6
f 106/19/10 105/17/10 117/17/10
f 97/2/4 99/3/4 111/3/4
f 104/15/13 103/13/13 115/13/13
f 103/13/2 102/11/2 114/11/2
f 92/15/26 75/15/26 104/15/26
f 75/15/25 73/13/25 103/13/25
f 83/26/24 108/26/24 100/28/24
f 96/26/23 120/26/23 108/26/23
f 92/35/18 116/35/18 115/29/18
f 87/7/16 111/7/16 99/7/16
f 86/9/28 62/9/28 98/9/28
f 79/19/17 106/19/17 107/21/17
f 85/36/34 86/37/34 110/37/34
f 94/38/38 118/38/38 117/31/38
f 90/11/19 114/11/19 102/11/19
f 64/7/21 97/7/21 98/9/21
f 85/36/30 109/36/30 111/39/30
f 95/21/16 81/21/16 107/21/16
f 94/38/37 95/40/37 119/40/37
f 70/2/22 100/2/22 101/5/22
f 65/1/4 64/2/4 63/4/4
f 69/4/6 68/5/6 67/6/6
f 67/6/5 66/7/5 65/8/5
f 63/8/1 62/9/1 61/10/1
f 61/10/3 71/11/3 72/12/3
f 72/12/2 73/13/2 74/14/2
f 74/14/13 75/15/13 76/16/13
f 76/16/12 77/17/12 78/18/12
f 78/18/10 79/19/10 80/20/10
f 80/20/9 81/21/9 82/25/9
f 61/23/11 69/24/11 63/41/11
f 63/41/11 69/24/11 65/42/11
f 65/42/11 69/24/11 67/43/11
f 69/24/11 78/45/11 84/44/11
f 84/44/11 78/45/11 82/46/11
f 82/46/11 78/45/11 80/47/11
f 78/45/11 74/22/11 76/48/11
f 74/22/11 61/23/11 72/49/11
f 78/45/11 69/24/11 74/22/11
f 82/25/8 83/26/8 84/27/8
f 84/27/7 70/28/7 69/50/7
f 91/29/20 114/30/20 90/30/20
f 89/32/15 87/39/15 88/34/15
f 87/39/15 89/32/15 85/36/15
f 85/36/15 89/32/15 86/37/15
f 86/37/15 91/29/15 90/30/15
f 91/29/15 93/31/15 92/35/15
f 93/31/15 95/40/15 94/38/15
f 95/40/15 93/31/15 96/33/15
f 96/33/15 93/31/15 89/32/15
f 86/37/15 89/32/15 91/29/15
f 93/17/28 105/17/28 77/17/28
f 83/26/8 95/21/8 96/26/8
f 79/19/29 105/17/29 106/19/29
f 96/33/27 112/32/27 120/33/27
f 88/5/32 101/5/32 113/5/32
f 77/17/12 92/15/12 93/17/12
f 66/7/5 88/5/5 87/7/5
f 89/32/14 113/34/14 112/32/14
f 64/2/33 99/3/33 97/2/33
f 73/13/36 102/11/36 103/13/36
f 71/11/3 86/9/3 90/11/3
f 100/28/7 120/26/7 112/28/7
f 98/9/1 109/7/1 110/9/1
f 107/21/9 118/19/9 119/21/9
f 101/5/6 112/2/6 113/5/6
f 106/19/10 117/17/10 118/19/10
f 97/2/4 111/3/4 109/2/4
f 104/15/13 115/13/13 116/15/13
f 103/13/2 114/11/2 115/13/2
f 92/15/26 104/15/26 116/15/26
f 75/15/25 103/13/25 104/15/25
f 83/26/24 100/28/24 70/28/24
f 96/26/23 108/26/23 83/26/23
f 92/35/18 115/29/18 91/29/18
f 87/7/16 99/7/16 66/7/16
f 86/9/28 98/9/28 110/9/28
f 79/19/17 107/21/17 81/21/17
f 85/36/34 110/37/34 109/36/34
f 94/38/35 117/31/35 93/31/35
f 90/11/19 102/11/19 71/11/19
f 64/7/21 98/9/21 62/9/21
f 85/36/30 111/39/30 87/39/30
f 95/21/16 107/21/16 119/21/16
f 94/38/31 119/40/31 118/38/31
f 70/2/22 101/5/22 68/5/22
