# Blender 4.5.0
# www.blender.org
mtllib raven_body.mtl
o Cylinder
v -1.000000 -0.000000 -1.000000
v 1.000000 0.087951 -1.000000
v -1.000000 -0.500000 -0.866025
v 1.000000 -0.355402 -0.866025
v -1.000000 -0.866025 -0.500000
v 1.000000 -0.679959 -0.500000
v -1.000000 -1.000000 0.000000
v 1.000000 -0.798755 0.000000
v -1.000000 -0.866025 0.500000
v 1.000000 -0.679959 0.500000
v -1.000000 -0.500000 0.866025
v 1.000000 -0.355402 0.866025
v -1.000000 -0.000000 1.000000
v 1.000000 0.087951 1.000000
v -1.000000 0.500000 0.866025
v 1.000000 0.531304 0.866025
v -1.000000 0.866025 0.500000
v 1.000000 0.855861 0.500000
v -1.000000 1.000000 0.000000
v 1.000000 0.974657 0.000000
v -1.000000 0.866025 -0.500000
v 1.000000 0.855861 -0.500000
v -1.000000 0.500000 -0.866025
v 1.000000 0.531304 -0.866025
v 2.338434 0.187150 -0.580186
v 2.338434 0.371408 -0.669941
v 2.338434 0.052263 -0.334971
v 2.338434 0.002892 0.000000
v 2.338434 0.052263 0.334971
v 2.338434 0.187150 0.580186
v 2.338434 0.371408 0.669941
v 2.338434 0.555666 0.580186
v 2.338434 0.690552 0.334971
v 2.338434 0.739924 0.000000
v 2.338434 0.690552 -0.334971
v 2.338434 0.555666 -0.580186
v 4.935250 0.812660 -1.001618
v 4.887325 0.838066 -1.156568
v 5.133554 0.841609 -0.578284
v 5.312801 0.882787 0.000000
v 5.133554 0.841609 0.578284
v 4.935250 0.812660 1.001618
v 4.887325 0.838066 1.156568
v 4.935250 0.882507 1.001618
v 5.133554 0.960095 0.578284
v 5.312801 1.016553 0.000000
v 5.133554 0.960095 -0.578284
v 4.935250 0.882507 -1.001618
v -2.196610 0.307166 -0.690586
v -2.196610 0.006037 -0.598065
v -2.196610 -0.214405 -0.345293
v -2.196610 -0.295092 -0.000000
v -2.196610 -0.214405 0.345293
v -2.196610 0.006037 0.598065
v -2.196610 0.307166 0.690586
v -2.196610 0.608295 0.598065
v -2.196610 0.828737 0.345293
v -2.196610 0.909424 -0.000000
v -2.196610 0.828737 -0.345293
v -2.196610 0.608295 -0.598065
v -3.135260 0.307166 -0.496265
v -3.135260 0.082548 -0.429778
v -3.135260 -0.081884 -0.248132
v -3.135260 -0.142070 -0.000000
v -3.135260 -0.081884 0.248132
v -3.135260 0.082548 0.429778
v -3.135260 0.307166 0.496265
v -3.135260 0.531784 0.429778
v -3.135260 0.696216 0.248132
v -3.135260 0.756402 -0.000000
v -3.135260 0.696216 -0.248132
v -3.135260 0.531784 -0.429778
v -3.423167 0.307166 -0.206098
v -3.423167 0.183238 -0.178486
v -3.423167 0.092516 -0.103049
v -3.423167 0.059309 -0.000000
v -3.423167 0.092516 0.103049
v -3.423167 0.183238 0.178486
v -3.423167 0.307166 0.206098
v -3.423167 0.431094 0.178486
v -3.423167 0.521816 0.103049
v -3.423167 0.555022 -0.000000
v -3.423167 0.521816 -0.103049
v -3.423167 0.431094 -0.178486
v -4.235641 0.105453 -0.061922
v -4.235641 0.072525 -0.053626
v -4.235641 0.048419 -0.030961
v -4.235641 0.039596 -0.000000
v -4.235641 0.048419 0.030961
v -4.235641 0.072525 0.053626
v -4.235641 0.105453 0.061922
v -4.235641 0.138381 0.053626
v -4.235641 0.162486 0.030961
v -4.235641 0.171309 -0.000000
v -4.235641 0.162486 -0.030961
v -4.235641 0.138381 -0.053626
vn 0.0187 -0.2588 -0.9658
vn 0.0656 -0.7056 -0.7056
vn 0.0967 -0.9614 -0.2576
vn 0.0967 -0.9614 0.2576
vn 0.0656 -0.7056 0.7056
vn 0.0187 -0.2588 0.9658
vn -0.0114 0.2588 0.9659
vn -0.0111 0.7071 0.7071
vn 0.0122 0.9659 0.2588
vn 0.0122 0.9659 -0.2588
vn 0.1710 0.9747 0.1437
vn -0.0111 0.7071 -0.7071
vn -0.0114 0.2588 -0.9659
vn -0.3097 -0.2461 0.9184
vn -0.1064 0.9857 0.1308
vn 0.1653 0.8641 0.4753
vn 0.1810 0.4307 0.8842
vn 0.3000 -0.4178 0.8576
vn 0.4165 -0.7966 0.4382
vn 0.4881 -0.8635 0.1273
vn 0.1722 0.2849 -0.9430
vn 0.3062 -0.2754 -0.9113
vn 0.5035 -0.8406 -0.1997
vn 0.1270 0.7422 -0.6581
vn 0.4408 -0.6716 -0.5955
vn 0.1470 0.9623 -0.2286
vn 0.9553 -0.0000 0.2955
vn 0.1317 -0.8686 0.4778
vn -0.2442 0.4247 -0.8718
vn 0.2665 -0.9620 -0.0591
vn -0.0924 0.9934 0.0683
vn 0.1389 -0.9695 0.2019
vn 0.2836 -0.9587 -0.0196
vn -0.1075 0.9836 -0.1450
vn -0.1578 0.9611 0.2268
vn 0.2577 -0.9559 0.1409
vn -0.1852 0.8610 -0.4736
vn -0.0404 -0.4376 -0.8983
vn 0.9056 -0.0000 0.4242
vn 0.9552 -0.0000 0.2961
vn 0.9552 -0.0000 -0.2961
vn 0.9553 -0.0000 -0.2955
vn 0.9056 -0.0000 -0.4242
vn -0.1914 -0.2786 0.9411
vn -0.4301 -0.6383 0.6383
vn -0.4946 -0.8395 0.2250
vn -0.1843 0.2887 -0.9395
vn -0.3070 -0.2795 -0.9097
vn -0.4884 -0.8497 -0.1986
vn -0.1078 0.7493 -0.6534
vn -0.4223 -0.6832 -0.5958
vn -0.0735 0.9711 -0.2269
vn -0.0634 0.9640 0.2583
vn -0.0939 0.7040 0.7040
vn -0.1803 0.2546 0.9501
vn -0.6802 -0.1594 0.7155
vn -0.1590 -0.9614 -0.2247
vn -0.1565 0.9598 -0.2328
vn -0.1941 0.2881 0.9377
vn -0.1565 -0.9598 0.2328
vn -0.1716 0.7304 -0.6612
vn -0.1941 -0.2881 -0.9377
vn -0.1765 0.7418 0.6470
vn -0.1716 -0.7304 0.6612
vn -0.1914 0.2786 -0.9411
vn -0.1765 -0.7418 -0.6470
vn -0.1590 0.9614 0.2247
vn -0.4101 0.8771 0.2500
vn -0.5775 -0.7934 -0.1924
vn -0.5542 0.7923 -0.2553
vn -0.6949 0.2041 0.6895
vn -0.5542 -0.7923 0.2553
vn -0.6125 0.5054 -0.6078
vn -0.6949 -0.2041 -0.6895
vn -0.6454 0.5663 0.5126
vn -0.6125 -0.5054 0.6078
vn -0.6802 0.1594 -0.7155
vn -0.6454 -0.5663 -0.5126
vn -0.5775 0.7934 0.1924
vn -1.0000 -0.0000 -0.0000
vn -0.1150 -0.2427 0.9633
vn 0.0244 -0.9515 -0.3066
vn -0.4100 0.8681 -0.2797
vn -0.2267 0.2380 0.9445
vn 0.0233 -0.9615 0.2740
vn -0.3312 0.6033 -0.7255
vn -0.1184 -0.2159 -0.9692
vn -0.3377 0.6448 0.6857
vn -0.0275 -0.6848 0.7283
vn -0.2226 0.2120 -0.9516
vn -0.0310 -0.6391 -0.7685
vn 0.0127 -0.2892 -0.9572
vn 0.0540 -0.7471 -0.6625
vn 0.0901 -0.9690 -0.2302
vn 0.0901 -0.9690 0.2302
vn 0.0540 -0.7471 0.6625
vn 0.0127 -0.2892 0.9572
vn -0.0045 0.2893 0.9572
vn 0.0038 0.7482 0.6634
vn 0.0049 0.9729 0.2312
vn 0.0049 0.9729 -0.2312
vn 0.1470 0.9623 0.2286
vn 0.0038 0.7482 -0.6634
vn -0.0045 0.2893 -0.9572
vn -0.3070 -0.2795 0.9097
vn -0.1852 0.8610 0.4736
vn 0.1270 0.7422 0.6581
vn 0.1722 0.2849 0.9430
vn 0.3062 -0.2754 0.9113
vn 0.4408 -0.6716 0.5955
vn 0.5035 -0.8406 0.1997
vn 0.1810 0.4307 -0.8842
vn 0.3000 -0.4178 -0.8576
vn 0.4881 -0.8635 -0.1273
vn 0.1653 0.8641 -0.4753
vn 0.4165 -0.7966 -0.4382
vn 0.1710 0.9747 -0.1437
vn 0.2665 -0.9620 0.0591
vn -0.1578 0.9611 -0.2268
vn 0.1317 -0.8686 -0.4778
vn -0.1075 0.9836 0.1450
vn -0.0404 -0.4376 0.8983
vn 0.2577 -0.9559 -0.1409
vn -0.0924 0.9934 -0.0683
vn -0.2442 0.4247 0.8718
vn 0.2836 -0.9587 0.0196
vn -0.1064 0.9857 -0.1308
vn 0.1389 -0.9695 -0.2019
vn -0.1941 -0.2881 0.9377
vn -0.4223 -0.6832 0.5958
vn -0.4884 -0.8497 0.1986
vn -0.1803 0.2546 -0.9501
vn -0.3097 -0.2461 -0.9184
vn -0.4946 -0.8395 -0.2250
vn -0.0939 0.7040 -0.7040
vn -0.4301 -0.6383 -0.6383
vn -0.0634 0.9640 -0.2583
vn -0.0735 0.9711 0.2269
vn -0.1078 0.7493 0.6534
vn -0.1843 0.2887 0.9395
vn -0.6949 -0.2041 0.6895
vn -0.1565 -0.9598 -0.2328
vn -0.1590 0.9614 -0.2247
vn -0.1914 0.2786 0.9411
vn -0.1590 -0.9614 0.2247
vn -0.1765 0.7418 -0.6470
vn -0.1914 -0.2786 -0.9411
vn -0.1716 0.7304 0.6612
vn -0.1765 -0.7418 0.6470
vn -0.1941 0.2881 -0.9377
vn -0.1716 -0.7304 -0.6612
vn -0.1565 0.9598 0.2328
vn -0.4100 0.8681 0.2797
vn -0.5542 -0.7923 -0.2553
vn -0.5775 0.7934 -0.1924
vn -0.6802 0.1594 0.7155
vn -0.5775 -0.7934 0.1924
vn -0.6454 0.5663 -0.5126
vn -0.6802 -0.1594 -0.7155
vn -0.6125 0.5054 0.6078
vn -0.6454 -0.5663 0.5126
vn -0.6949 0.2041 -0.6895
vn -0.6125 -0.5054 -0.6078
vn -0.5542 0.7923 0.2553
vn -0.1184 -0.2159 0.9692
vn 0.0233 -0.9615 -0.2740
vn -0.4101 0.8771 -0.2500
vn -0.2226 0.2120 0.9516
vn 0.0244 -0.9515 0.3066
vn -0.3377 0.6448 -0.6857
vn -0.1150 -0.2427 -0.9633
vn -0.3312 0.6033 0.7255
vn -0.0310 -0.6391 0.7685
vn -0.2267 0.2380 -0.9445
vn -0.0275 -0.6848 -0.7283
vt 1.000000 0.500000
vt 0.916667 1.000000
vt 0.916667 0.500000
vt 0.833333 1.000000
vt 0.833333 0.500000
vt 0.750000 1.000000
vt 0.750000 0.500000
vt 0.666667 0.500000
vt 0.666667 1.000000
vt 0.583333 0.500000
vt 0.583333 1.000000
vt 0.500000 0.500000
vt 0.500000 1.000000
vt 0.416667 0.500000
vt 0.416667 1.000000
vt 0.333333 0.500000
vt 0.250000 1.000000
vt 0.250000 0.500000
vt 0.166667 0.500000
vt 0.333333 1.000000
vt 0.083333 1.000000
vt 0.083333 0.500000
vt 0.000000 1.000000
vt 0.000000 0.500000
vt 1.000000 1.000000
vt 0.166667 1.000000
vt 0.370000 0.042154
vt 0.130000 0.042154
vt 0.250000 0.010000
vt 0.457846 0.130000
vt 0.490000 0.250000
vt 0.042154 0.130000
vt 0.042154 0.370000
vt 0.457846 0.370000
vt 0.370000 0.457846
vt 0.250000 0.490000
vt 0.130000 0.457846
vt 0.542154 0.370000
vt 0.630000 0.457846
vt 0.630000 0.042154
vt 0.010000 0.250000
vt 0.750000 0.490000
vt 0.870000 0.457846
vt 0.750000 0.010000
vt 0.957846 0.370000
vt 0.957846 0.130000
vt 0.990000 0.250000
vt 0.870000 0.042154
vt 0.542154 0.130000
vt 0.510000 0.250000
s 0
f 1/1/1 4/2/1 3/3/1
f 3/3/2 6/4/2 5/5/2
f 5/5/3 8/6/3 7/7/3
f 8/6/4 9/8/4 7/7/4
f 10/9/5 11/10/5 9/8/5
f 12/11/6 13/12/6 11/10/6
f 14/13/7 15/14/7 13/12/7
f 16/15/8 17/16/8 15/14/8
f 17/16/9 20/17/9 19/18/9
f 20/17/10 21/19/10 19/18/10
f 20/17/11 33/20/11 34/17/11
f 21/19/12 24/21/12 23/22/12
f 23/22/13 2/23/13 1/24/13
f 13/12/14 54/10/14 11/10/14
f 33/20/15 44/15/15 45/20/15
f 18/20/16 32/15/16 33/20/16
f 16/15/17 31/13/17 32/15/17
f 14/13/18 30/11/18 31/13/18
f 12/11/19 29/9/19 30/11/19
f 10/9/20 28/6/20 29/9/20
f 24/21/21 26/23/21 2/23/21
f 2/25/22 25/2/22 4/2/22
f 6/4/23 28/6/23 8/6/23
f 22/26/24 36/21/24 24/21/24
f 4/2/25 27/4/25 6/4/25
f 20/17/26 35/26/26 22/26/26
f 42/27/27 44/28/27 43/29/27
f 29/9/28 42/11/28 30/11/28
f 36/21/29 38/23/29 26/23/29
f 27/4/30 37/2/30 39/4/30
f 34/17/31 45/20/31 46/17/31
f 31/13/32 42/11/32 43/13/32
f 28/6/33 39/4/33 40/6/33
f 34/17/34 47/26/34 35/26/34
f 32/15/35 43/13/35 44/15/35
f 28/6/36 41/9/36 29/9/36
f 35/26/37 48/21/37 36/21/37
f 26/25/38 37/2/38 25/2/38
f 41/30/39 44/28/39 42/27/39
f 40/31/40 45/32/40 41/30/40
f 47/33/41 40/31/41 39/34/41
f 37/35/42 38/36/42 48/37/42
f 39/34/43 48/37/43 47/33/43
f 54/10/44 67/12/44 66/10/44
f 11/10/45 53/8/45 9/8/45
f 9/8/46 52/7/46 7/7/46
f 23/22/47 49/24/47 60/22/47
f 1/1/48 50/3/48 49/1/48
f 5/5/49 52/7/49 51/5/49
f 21/19/50 60/22/50 59/19/50
f 3/3/51 51/5/51 50/3/51
f 19/18/52 59/19/52 58/18/52
f 19/18/53 57/16/53 17/16/53
f 17/16/54 56/14/54 15/14/54
f 15/14/55 55/12/55 13/12/55
f 66/10/56 79/12/56 78/10/56
f 52/7/57 63/5/57 51/5/57
f 58/18/58 71/19/58 70/18/58
f 56/14/59 67/12/59 55/12/59
f 52/7/60 65/8/60 64/7/60
f 59/19/61 72/22/61 71/19/61
f 50/3/62 61/1/62 49/1/62
f 57/16/63 68/14/63 56/14/63
f 53/8/64 66/10/64 65/8/64
f 60/22/65 61/24/65 72/22/65
f 51/5/66 62/3/66 50/3/66
f 58/18/67 69/16/67 57/16/67
f 81/16/68 94/18/68 93/16/68
f 64/7/69 75/5/69 63/5/69
f 70/18/70 83/19/70 82/18/70
f 68/14/71 79/12/71 67/12/71
f 64/7/72 77/8/72 76/7/72
f 71/19/73 84/22/73 83/19/73
f 62/3/74 73/1/74 61/1/74
f 69/16/75 80/14/75 68/14/75
f 65/8/76 78/10/76 77/8/76
f 72/22/77 73/24/77 84/22/77
f 63/5/78 74/3/78 62/3/78
f 70/18/79 81/16/79 69/16/79
f 95/38/80 96/39/80 92/40/80
f 78/10/81 91/12/81 90/10/81
f 76/7/82 87/5/82 75/5/82
f 83/19/83 94/18/83 82/18/83
f 79/12/84 92/14/84 91/12/84
f 76/7/85 89/8/85 88/7/85
f 84/22/86 95/19/86 83/19/86
f 74/3/87 85/1/87 73/1/87
f 80/14/88 93/16/88 92/14/88
f 77/8/89 90/10/89 89/8/89
f 73/24/90 96/22/90 84/22/90
f 75/5/91 86/3/91 74/3/91
f 1/1/92 2/25/92 4/2/92
f 3/3/93 4/2/93 6/4/93
f 5/5/94 6/4/94 8/6/94
f 8/6/95 10/9/95 9/8/95
f 10/9/96 12/11/96 11/10/96
f 12/11/97 14/13/97 13/12/97
f 14/13/98 16/15/98 15/14/98
f 16/15/99 18/20/99 17/16/99
f 17/16/100 18/20/100 20/17/100
f 20/17/101 22/26/101 21/19/101
f 20/17/102 18/20/102 33/20/102
f 21/19/103 22/26/103 24/21/103
f 23/22/104 24/21/104 2/23/104
f 13/12/105 55/12/105 54/10/105
f 33/20/106 32/15/106 44/15/106
f 18/20/107 16/15/107 32/15/107
f 16/15/108 14/13/108 31/13/108
f 14/13/109 12/11/109 30/11/109
f 12/11/110 10/9/110 29/9/110
f 10/9/111 8/6/111 28/6/111
f 24/21/112 36/21/112 26/23/112
f 2/25/113 26/25/113 25/2/113
f 6/4/114 27/4/114 28/6/114
f 22/26/115 35/26/115 36/21/115
f 4/2/116 25/2/116 27/4/116
f 20/17/117 34/17/117 35/26/117
f 29/9/118 41/9/118 42/11/118
f 36/21/119 48/21/119 38/23/119
f 27/4/120 25/2/120 37/2/120
f 34/17/121 33/20/121 45/20/121
f 31/13/122 30/11/122 42/11/122
f 28/6/123 27/4/123 39/4/123
f 34/17/124 46/17/124 47/26/124
f 32/15/125 31/13/125 43/13/125
f 28/6/126 40/6/126 41/9/126
f 35/26/127 47/26/127 48/21/127
f 26/25/128 38/25/128 37/2/128
f 41/30/39 45/32/39 44/28/39
f 40/31/40 46/41/40 45/32/40
f 47/33/41 46/41/41 40/31/41
f 39/34/43 37/35/43 48/37/43
f 54/10/129 55/12/129 67/12/129
f 11/10/130 54/10/130 53/8/130
f 9/8/131 53/8/131 52/7/131
f 23/22/132 1/24/132 49/24/132
f 1/1/133 3/3/133 50/3/133
f 5/5/134 7/7/134 52/7/134
f 21/19/135 23/22/135 60/22/135
f 3/3/136 5/5/136 51/5/136
f 19/18/137 21/19/137 59/19/137
f 19/18/138 58/18/138 57/16/138
f 17/16/139 57/16/139 56/14/139
f 15/14/140 56/14/140 55/12/140
f 66/10/141 67/12/141 79/12/141
f 52/7/142 64/7/142 63/5/142
f 58/18/143 59/19/143 71/19/143
f 56/14/144 68/14/144 67/12/144
f 52/7/145 53/8/145 65/8/145
f 59/19/146 60/22/146 72/22/146
f 50/3/147 62/3/147 61/1/147
f 57/16/148 69/16/148 68/14/148
f 53/8/149 54/10/149 66/10/149
f 60/22/150 49/24/150 61/24/150
f 51/5/151 63/5/151 62/3/151
f 58/18/152 70/18/152 69/16/152
f 81/16/153 82/18/153 94/18/153
f 64/7/154 76/7/154 75/5/154
f 70/18/155 71/19/155 83/19/155
f 68/14/156 80/14/156 79/12/156
f 64/7/157 65/8/157 77/8/157
f 71/19/158 72/22/158 84/22/158
f 62/3/159 74/3/159 73/1/159
f 69/16/160 81/16/160 80/14/160
f 65/8/161 66/10/161 78/10/161
f 72/22/162 61/24/162 73/24/162
f 63/5/163 75/5/163 74/3/163
f 70/18/164 82/18/164 81/16/164
f 96/39/80 85/42/80 92/40/80
f 85/42/80 86/43/80 91/44/80
f 92/40/80 85/42/80 91/44/80
f 86/43/80 87/45/80 89/46/80
f 87/45/80 88/47/80 89/46/80
f 89/46/80 90/48/80 86/43/80
f 90/48/80 91/44/80 86/43/80
f 92/40/80 93/49/80 95/38/80
f 93/49/80 94/50/80 95/38/80
f 78/10/165 79/12/165 91/12/165
f 76/7/166 88/7/166 87/5/166
f 83/19/167 95/19/167 94/18/167
f 79/12/168 80/14/168 92/14/168
f 76/7/169 77/8/169 89/8/169
f 84/22/170 96/22/170 95/19/170
f 74/3/171 86/3/171 85/1/171
f 80/14/172 81/16/172 93/16/172
f 77/8/173 78/10/173 90/10/173
f 73/24/174 85/24/174 96/22/174
f 75/5/175 87/5/175 86/3/175
