# Blender 4.4.0
# www.blender.org
o Cube.002
v 0.828023 0.155372 1.198568
v 2.828023 0.409037 1.992566
v 0.828023 0.327571 1.198568
v 0.828023 0.155372 -0.801432
v 2.828023 0.409037 -0.007434
v 0.828023 0.327571 -0.801432
v 2.828023 0.581236 -0.007434
v 2.828023 0.581236 1.992566
v 5.551069 0.327571 -0.219516
v 5.551069 0.327571 0.205341
v 5.551069 0.155372 -0.219516
v 5.551069 0.155372 0.205341
vn 0.1258 -0.9921 -0.0000
vn -0.3690 -0.0000 0.9294
vn -1.0000 -0.0000 -0.0000
vn 0.3690 -0.0000 -0.9294
vn -0.1258 0.9921 -0.0000
vn 0.0928 0.9957 -0.0000
vn -0.0776 -0.0000 -0.9970
vn 1.0000 -0.0000 -0.0000
vn -0.0928 -0.9957 -0.0000
vn 0.5487 -0.0000 0.8360
vt 0.125000 0.750000
vt 0.375000 0.500000
vt 0.125000 0.500000
vt 0.375000 0.250000
vt 0.625000 0.000000
vt 0.375000 0.000000
vt 0.375000 1.000000
vt 0.625000 0.750000
vt 0.375000 0.750000
vt 0.625000 0.500000
vt 0.875000 0.750000
vt 0.875000 0.500000
vt 0.625000 0.250000
vt 0.625000 1.000000
s 0
f 1/1/1 5/2/1 2/3/1
f 2/4/2 3/5/2 1/6/2
f 1/7/3 6/8/3 4/9/3
f 5/2/4 6/8/4 7/10/4
f 7/10/5 3/11/5 8/12/5
f 10/12/6 7/10/6 8/12/6
f 9/10/7 5/2/7 7/10/7
f 11/2/8 10/13/8 12/4/8
f 5/2/9 12/3/9 2/3/9
f 2/4/10 10/13/10 8/13/10
f 1/1/1 4/9/1 5/2/1
f 2/4/2 8/13/2 3/5/2
f 1/7/3 3/14/3 6/8/3
f 5/2/4 4/9/4 6/8/4
f 7/10/5 6/8/5 3/11/5
f 10/12/6 9/10/6 7/10/6
f 9/10/7 11/2/7 5/2/7
f 11/2/8 9/10/8 10/13/8
f 5/2/9 11/2/9 12/3/9
f 2/4/10 12/4/10 10/13/10
