# Blender 4.5.0
# www.blender.org
o Cone
v 0.000000 -1.147179 -0.668866
v 0.579707 -1.016015 0.335215
v -0.579707 -1.016015 0.335215
v 0.000000 1.000000 0.062062
v 0.000000 -0.736495 -0.780635
v 0.000000 0.415182 -0.292409
v 0.253234 0.415182 0.146204
v 0.676049 -0.557082 0.390317
v -0.253234 0.415182 0.146204
v -0.676049 -0.557082 0.390317
v 0.438736 -0.399419 0.253304
v -0.438736 -0.399419 0.253304
v 0.000000 -0.399419 -0.506608
v 0.000000 -1.179413 -0.915623
v 0.792952 -1.000000 0.457811
v -0.792952 -1.000000 0.457811
v -0.000000 -0.408596 -0.421489
v 0.286912 -0.343680 0.075458
v -0.286912 -0.343680 0.075458
v -0.393739 -0.308237 0.035641
v -0.206404 0.109205 -0.066366
v -0.174720 0.111276 -0.139265
v -0.169381 -0.367799 -0.338506
v 0.169381 -0.367799 -0.338506
v 0.174720 0.111276 -0.139265
v 0.206404 0.109205 -0.066366
v 0.393740 -0.308237 0.035641
v 0.144391 -0.374519 -0.323329
v 0.149730 0.104557 -0.124087
v 0.368749 -0.314956 0.050818
v 0.181414 0.102485 -0.051189
v -0.181414 0.102485 -0.051189
v -0.368749 -0.314956 0.050818
v -0.144391 -0.374519 -0.323329
v -0.149730 0.104556 -0.124087
vn 0.8288 0.2900 -0.4785
vn 0.8435 -0.1706 0.5093
vn -0.0000 0.1424 0.9898
vn -0.8288 0.2900 -0.4785
vn 0.7620 -0.4085 0.5025
vn -0.1940 -0.9746 -0.1120
vn -0.0000 0.2435 0.9699
vn -0.4019 -0.3835 -0.8315
vn 0.8193 0.2663 -0.5078
vn -0.0000 0.3223 0.9466
vn -0.8193 0.2663 -0.5078
vn -0.0000 -0.9916 0.1295
vn -0.0000 -0.3604 -0.9328
vn -0.8435 -0.1706 0.5093
vn -0.8344 0.2380 -0.4971
vn -0.9104 0.1329 -0.3919
vn -0.8247 0.2093 -0.5254
vn -0.8256 0.2356 -0.5127
vn 0.8409 0.2112 -0.4983
vn 0.8410 0.2388 -0.4855
vn 0.8176 0.2389 -0.5239
vn 0.8286 0.1890 -0.5270
vn 0.8234 0.2101 -0.5272
vn -0.2588 0.9659 0.0014
vn 0.1940 -0.9746 -0.1120
vn 0.5532 -0.3251 0.7670
vn -0.8234 0.2101 -0.5272
vn 0.4019 -0.3835 -0.8315
vn -0.5532 -0.3251 0.7670
vn 0.2588 0.9659 0.0014
vn -0.0000 -0.6559 -0.7548
vn -0.7620 -0.4085 0.5025
vn -0.6537 -0.6559 0.3774
vn 0.6537 -0.6559 0.3774
vn 0.8198 0.3223 -0.4733
vn -0.8198 0.3223 -0.4733
vn -0.8176 0.2389 -0.5239
vn -0.8410 0.2388 -0.4855
vn -0.8409 0.2112 -0.4983
vn -0.8286 0.1890 -0.5270
vn 0.8247 0.2093 -0.5254
vn 0.9104 0.1329 -0.3919
vn 0.8344 0.2380 -0.4971
vn 0.8256 0.2356 -0.5127
vn 0.8772 0.3026 -0.3727
vn -0.8772 0.3026 -0.3727
vt 0.250000 0.320178
vt 0.250000 0.250000
vt 0.310776 0.214911
vt 0.598049 0.162134
vt 0.750000 0.425321
vt 0.189224 0.214911
vt 0.250000 0.449751
vt 0.250000 0.468896
vt 0.077011 0.150125
vt 0.197650 0.267111
vt 0.207595 0.283815
vt 0.422989 0.150125
vt 0.302350 0.267111
vt 0.349044 0.240310
vt 0.457846 0.130000
vt 0.250000 0.490000
vt 0.439570 0.140552
vt 0.042154 0.130000
vt 0.957846 0.130000
vt 0.901951 0.162134
vt 0.542154 0.130000
vt 0.750000 0.490000
vt 0.150956 0.240310
vt 0.205984 0.336469
vt 0.294016 0.336469
vt 0.292405 0.283815
vt 0.060430 0.140552
s 0
f 6/1/1 4/2/1 7/3/1
f 3/4/2 17/5/2 19/4/2
f 7/3/3 4/2/3 9/6/3
f 9/6/4 4/2/4 6/1/4
f 5/7/5 13/8/5 10/9/5
f 21/10/6 35/11/6 32/10/6
f 7/3/7 10/9/7 8/12/7
f 26/13/8 30/14/8 31/13/8
f 13/8/9 15/15/9 14/16/9
f 11/17/10 16/18/10 15/15/10
f 16/18/11 13/8/11 14/16/11
f 1/5/12 15/19/12 2/20/12
f 3/4/12 15/19/12 16/21/12
f 1/5/12 16/21/12 14/22/12
f 17/5/12 18/20/12 19/4/12
f 3/4/13 18/20/13 2/20/13
f 2/20/14 17/5/14 1/5/14
f 9/6/15 20/23/15 10/9/15
f 9/6/16 22/11/16 21/10/16
f 6/1/17 23/24/17 22/11/17
f 10/9/18 23/24/18 5/7/18
f 6/1/19 24/25/19 5/7/19
f 7/3/20 25/26/20 6/1/20
f 7/3/21 27/14/21 26/13/21
f 8/12/22 24/25/22 27/14/22
f 29/26/23 30/14/23 28/25/23
f 24/25/24 30/14/24 27/14/24
f 26/13/25 29/26/25 25/26/25
f 24/25/26 29/26/26 28/25/26
f 33/23/27 35/11/27 34/24/27
f 21/10/28 33/23/28 20/23/28
f 23/24/29 35/11/29 22/11/29
f 23/24/30 33/23/30 34/24/30
f 10/9/31 11/17/31 8/12/31
f 3/4/2 1/5/2 17/5/2
f 5/7/32 8/12/32 13/8/32
f 8/12/33 11/17/33 13/8/33
f 13/8/34 12/27/34 10/9/34
f 21/10/6 22/11/6 35/11/6
f 7/3/7 9/6/7 10/9/7
f 26/13/8 27/14/8 30/14/8
f 13/8/35 11/17/35 15/15/35
f 11/17/10 12/27/10 16/18/10
f 16/18/36 12/27/36 13/8/36
f 1/5/12 14/22/12 15/19/12
f 3/4/12 2/20/12 15/19/12
f 1/5/12 3/4/12 16/21/12
f 3/4/13 19/4/13 18/20/13
f 2/20/14 18/20/14 17/5/14
f 9/6/37 21/10/37 20/23/37
f 9/6/38 6/1/38 22/11/38
f 6/1/39 5/7/39 23/24/39
f 10/9/40 20/23/40 23/24/40
f 6/1/41 25/26/41 24/25/41
f 7/3/42 26/13/42 25/26/42
f 7/3/43 8/12/43 27/14/43
f 8/12/44 5/7/44 24/25/44
f 29/26/45 31/13/45 30/14/45
f 24/25/24 28/25/24 30/14/24
f 26/13/25 31/13/25 29/26/25
f 24/25/26 25/26/26 29/26/26
f 33/23/46 32/10/46 35/11/46
f 21/10/28 32/10/28 33/23/28
f 23/24/29 34/24/29 35/11/29
f 23/24/30 20/23/30 33/23/30
f 10/9/31 12/27/31 11/17/31
